<?xml version="1.0" encoding="UTF-8" standalone="no"?>
<!DOCTYPE svg PUBLIC "-//W3C//DTD SVG 1.1//EN" "http://www.w3.org/Graphics/SVG/1.1/DTD/svg11.dtd">
<svg width="100%" height="100%" viewBox="0 0 183 209" version="1.1" xmlns="http://www.w3.org/2000/svg" xmlns:xlink="http://www.w3.org/1999/xlink" xml:space="preserve" xmlns:serif="http://www.serif.com/" style="fill-rule:evenodd;clip-rule:evenodd;stroke-linejoin:round;stroke-miterlimit:2;">
    <style>
        @media (prefers-color-scheme: dark) {
            .content { fill: white; }
        }
    </style>
    <g class="content" transform="matrix(1,0,0,1,3.9044,1.48056)">
        <g transform="matrix(1,0,0,1,-0.65357,-1.66363)">
            <path d="M171.48,200.71L4.777,200.71L4.777,8.211L171.48,8.211L171.48,200.71ZM161.48,18.211L14.777,18.211L14.777,190.71L161.48,190.71L161.48,18.211Z"/>
        </g>
        <g transform="matrix(4.94837,0,0,4.94837,-407.968,-351.472)">
            <g transform="matrix(12,0,0,12,109.07,93.1215)">
            </g>
            <text x="89.74px" y="93.122px" style="font-family:'Helvetica-Bold', 'Helvetica';font-weight:700;font-size:12px;">Pdf</text>
        </g>
        <g transform="matrix(1.78483,0,0,1.78483,-104.76,-28.2803)">
            <g transform="matrix(12,0,0,12,103.088,93.1215)">
            </g>
            <g transform="matrix(12,0,0,12,106.422,93.1215)">
            </g>
            <g transform="matrix(12,0,0,12,125.758,93.1215)">
            </g>
            <text x="89.74px" y="93.122px" style="font-family:'Helvetica';font-size:12px;">pdﬁum</text>
        </g>
        <g transform="matrix(1.78483,0,0,1.78483,-104.675,7.28595)">
            <g transform="matrix(12,0,0,12,123.104,93.1215)">
            </g>
            <text x="89.74px" y="93.122px" style="font-family:'Helvetica';font-size:12px;">1.7.00</text>
        </g>
        <g transform="matrix(1.78483,0,0,1.78483,-133.652,-125.727)">
            <g transform="matrix(12,0,0,12,107.992,93.1215)">
            </g>
            <text x="89.74px" y="93.122px" style="font-family:'Helvetica';font-size:12px;">1<tspan x="95.529px " y="93.122px ">1</tspan>1</text>
        </g>
    </g>
</svg>
